<?xml version="1.0" encoding="UTF-8"?>
<svg id="katman_1" xmlns="http://www.w3.org/2000/svg" version="1.1" viewBox="0 0 842 320">
  <!-- Generator: Adobe Illustrator 30.2.1, SVG Export Plug-In . SVG Version: 2.1.1 Build 1)  -->
  <defs>
    <style>
      .st0 {
        fill: #d23640;
      }
    </style>
  </defs>
  <path class="st0" d="M834.73,108.82c-7.77-22.88-25.88-39.49-49.38-45.39-32.29-8.1-66.54,1.4-89.84,25.33-7.39,7.61-12.87,16.24-17.72,25.7-10.46,20.39-15.99,42.68-16.19,65.66-.3,35.59,18.07,67.29,53.56,76.41,39.81,10.23,79.27-7.38,101.72-41.63,19.39-29.59,29.48-71.81,17.85-106.09ZM777.19,187.81c-2.91,5.88-6.6,10.85-11.02,15.5-7.23,7.58-16.93,11.04-27.85,10.01-23.47-2.19-28.27-25.59-25.98-44.68,2.28-18.98,10.84-43.43,25.93-55.88,9.21-7.58,22.07-9.32,33.01-4.58,6.51,2.82,10.99,8.39,13.54,14.93,7.48,19.15,1.31,46.67-7.64,64.69Z"/>
  <path class="st0" d="M312.77,62.47l-50.33.06-114.29,193.11,53.35.09,18.95-35.65,58.05.07,1.92,35.6,52.47-.1-20.13-193.19ZM244.28,180.22l28.57-56.28,2.84,56.22-31.41.06Z"/>
  <path class="st0" d="M173,109.89c-3.17-21.76-19.08-36.45-39.72-42.07-9.26-2.06-18.2-3.36-27.89-3.37l-56.24-.07L2.33,255.69l49.65.06,13.17-55.27,27.19-.22c30.88-1.67,60.51-13.89,74.1-43.84,6.74-14.88,8.86-30.69,6.56-46.52ZM114.3,151.16c-11.3,9.93-24.13,9.01-38.7,8.79l12.46-53.11c5.68-.3,11.48-.43,17.25.32,10.23,1.34,17.75,9.37,17.92,19.72.14,8.98-3.1,17.25-8.93,24.28Z"/>
  <path class="st0" d="M431.28,257.28c-33.72,5.24-66.79-6.99-89.87-31.28l30.33-35.3c7.29,6.4,14.41,12.45,22.74,17.37,7.46,4.13,15.04,6.8,23.65,7.39,8.02.26,17.07-3.04,18.28-11.44.61-4.27-1-8.35-4.23-11.32-12.85-11.85-28.76-17.73-43.14-30.9-7.6-6.95-13.7-15.17-15.87-25.46-7.19-34.24,15.41-65.07,49.06-73.23,31.68-7.68,64.11,2.55,88.84,24.22l-30.39,36.4c-12.81-12.22-29.16-23.06-47.24-18.98-4.77,1.48-8.38,4.77-9.54,8.87-1.42,5.02.47,9.8,4.47,13.25,5.48,4.72,11.56,8.46,17.87,12.21,15.68,9.32,35.6,22.32,40.71,40.89,6.61,24.04-2.56,49.11-22.5,63.88-9.74,7.21-20.58,11.48-33.15,13.43Z"/>
  <path class="st0" d="M582.57,257.36c-33.62,4.96-66.31-6.88-89.74-31.32l30.45-35.43c8.64,8.39,17.44,15.53,28.11,20.36,7.95,3.31,16.24,5.4,24.58,3.89,5.22-1.32,9.3-4.72,10.59-9.24,7.45-26.16-67.49-30.08-64.16-84.51.92-14.99,6.72-28.02,17.07-38.58,10.56-10.77,22.94-17.99,38.13-20.55,30.29-5.11,60.95,4.1,83.96,25.36l-29.55,36.42c-6.55-5.85-12.36-10.26-19.29-14.21-9.93-5.66-32.6-10.49-37.12,2.95-4.01,11.9,8.94,19.24,18.94,25.23,16.64,9.96,38.19,23.43,43.22,43.43,5.94,23.62-3.15,47.69-22.35,62.39-9.65,7.39-20.32,11.6-32.85,13.8Z"/>
</svg>